<svg width="271" height="104" viewBox="0 0 271 104" fill="none" xmlns="http://www.w3.org/2000/svg">
<path d="M270.823 31.5667L250.087 102.479H230.759L217.831 52.9426L204.903 102.479H185.447L164.583 31.5667H182.759L195.303 85.5827L208.871 31.5667H227.815L241.127 85.4547L253.671 31.5667H270.823Z" fill="#121212"/>
<path d="M122.382 103.631C115.555 103.631 109.411 102.137 103.95 99.1507C98.4887 96.0787 94.1793 91.7693 91.022 86.2227C87.95 80.676 86.414 74.276 86.414 67.0227C86.414 59.7693 87.9927 53.3693 91.15 47.8227C94.3927 42.276 98.7873 38.0093 104.334 35.0227C109.881 31.9507 116.067 30.4147 122.894 30.4147C129.721 30.4147 135.907 31.9507 141.454 35.0227C147.001 38.0093 151.353 42.276 154.51 47.8227C157.753 53.3693 159.374 59.7693 159.374 67.0227C159.374 74.276 157.71 80.676 154.382 86.2227C151.139 91.7693 146.702 96.0787 141.07 99.1507C135.523 102.137 129.294 103.631 122.382 103.631ZM122.382 88.0147C125.625 88.0147 128.654 87.2467 131.47 85.7107C134.371 84.0893 136.675 81.7 138.382 78.5427C140.089 75.3853 140.942 71.5453 140.942 67.0227C140.942 60.2813 139.15 55.1187 135.566 51.5347C132.067 47.8653 127.758 46.0307 122.638 46.0307C117.518 46.0307 113.209 47.8653 109.71 51.5347C106.297 55.1187 104.59 60.2813 104.59 67.0227C104.59 73.764 106.254 78.9693 109.582 82.6387C112.995 86.2227 117.262 88.0147 122.382 88.0147Z" fill="#121212"/>
<path d="M73.189 7.75867V102.479H55.269V7.75867H73.189Z" fill="#121212"/>
<path d="M43.656 46.2866H31.24V102.479H13.064V46.2866H5V31.5666H13.064V27.9826C13.064 19.2786 15.5387 12.8786 20.488 8.78258C25.4373 4.68658 32.904 2.76659 42.888 3.02259V18.1266C38.536 18.0413 35.5067 18.7666 33.8 20.3026C32.0933 21.8386 31.24 24.6119 31.24 28.6226V31.5666H43.656V46.2866Z" fill="#121212"/>
<path d="M265.823 28.5667L245.087 99.4787H225.759L212.831 49.9426L199.903 99.4787H180.447L159.583 28.5667H177.759L190.303 82.5827L203.871 28.5667H222.815L236.127 82.4547L248.671 28.5667H265.823Z" fill="white"/>
<path d="M117.382 100.631C110.555 100.631 104.411 99.1373 98.95 96.1507C93.4887 93.0787 89.1793 88.7693 86.022 83.2227C82.95 77.676 81.414 71.276 81.414 64.0227C81.414 56.7693 82.9927 50.3693 86.15 44.8227C89.3927 39.276 93.7873 35.0093 99.334 32.0227C104.881 28.9507 111.067 27.4147 117.894 27.4147C124.721 27.4147 130.907 28.9507 136.454 32.0227C142.001 35.0093 146.353 39.276 149.51 44.8227C152.753 50.3693 154.374 56.7693 154.374 64.0227C154.374 71.276 152.71 77.676 149.382 83.2227C146.139 88.7693 141.702 93.0787 136.07 96.1507C130.523 99.1373 124.294 100.631 117.382 100.631ZM117.382 85.0147C120.625 85.0147 123.654 84.2467 126.47 82.7107C129.371 81.0893 131.675 78.7 133.382 75.5427C135.089 72.3853 135.942 68.5453 135.942 64.0227C135.942 57.2813 124.584 67.084 121 63.5C117.501 59.8307 122.758 43.0307 117.638 43.0307C112.518 43.0307 108.209 44.8653 104.71 48.5347C101.297 52.1187 99.59 57.2813 99.59 64.0227C99.59 70.764 115.672 63.3307 119 67C122.413 70.584 112.262 85.0147 117.382 85.0147Z" fill="#4A4743"/>
<path d="M68.189 4.75867V99.4787H50.269V4.75867H68.189Z" fill="white"/>
<path d="M38.656 43.2866H26.24V99.4786H8.064V43.2866H0V28.5666H8.064V24.9826C8.064 16.2786 10.5387 9.87859 15.488 5.78258C20.4373 1.68658 27.904 -0.233413 37.888 0.0225886V15.1266C33.536 15.0413 30.5067 15.7666 28.8 17.3026C27.0933 18.8386 26.24 21.6119 26.24 25.6226V28.5666H38.656V43.2866Z" fill="white"/>
</svg>
